<svg xmlns="http://www.w3.org/2000/svg" version="1.1" xmlns:xlink="http://www.w3.org/1999/xlink" xmlns:svgjs="http://svgjs.dev/svgjs" width="100%" height="100%" viewBox="0 0 1000 600"><rect width="1000" height="600" x="0" y="0" fill="#f96158"/><g><rect width="333.3333333333333" height="333.3333333333333" y="268.03457886069236" fill="#fce77d" transform="matrix(0.5085179545561785,0,0,0.5085179545561784,0,78.94660292376899)" x="245.8123016357422"/><path d="M297.4316031435605 359.7012544732891Q331.3864505387551 359.7012544732891 351.94682117876613 375.4843625234152Q372.5374276579536 391.2674705735413 372.5374276579536 433.93023965156414L372.5374276579536 433.93023965156414Q372.5374276579536 475.53475435840994 351.94682117876613 492.6180034931249Q331.3864505387551 509.70125262783995 301.99721485921 509.70125262783995L301.99721485921 509.70125262783995L266.07703791754375 509.70125262783995L266.07703791754375 359.7012544732891L297.4316031435605 359.7012544732891ZM301.99721485921 376.2402585028274L286.7583519142607 376.2402585028274L286.7583519142607 493.3738994725371L303.5090068180343 493.3738994725371Q324.4322075281632 493.3738994725371 337.49409005240545 480.52366782253023Q350.5559725766477 467.67343617252334 350.5559725766477 433.93023965156414L350.5559725766477 433.93023965156414Q350.5559725766477 410.2253417371985 343.7831446011147 397.4658176047211Q337.04055246475815 384.73652931142016 326.6091879488702 380.50351182671204Q316.14758759380584 376.2402585028274 301.99721485921 376.2402585028274L301.99721485921 376.2402585028274ZM539.9532691781608 359.7012544732891L558.8809045026414 359.7012544732891L528.4031786127427 509.70125262783995L501.85611181578753 509.70125262783995L474.1903189693021 384.101576688714L446.34311108775773 509.70125262783995L420.43099691350864 509.70125262783995L389.95327102361 359.7012544732891L410.18104743267963 359.7012544732891L434.36971877386907 491.62022080030084L463.3054168657669 359.7012544732891L485.28687194707277 359.7012544732891L514.9179943400297 491.62022080030084L539.9532691781608 359.7012544732891Z " fill="#f96167" transform="matrix(0.5085179545561785,0,0,0.5085179545561784,0,78.94660292376899)"/><path d="M689.7588711751334 376.93204829995824Q719.3011368095883 376.93204829995824 737.1895968553848 390.6640720409961Q755.1043634600721 404.3960957820339 755.1043634600721 441.51465037706157L755.1043634600721 441.51465037706157Q755.1043634600721 477.71247541090844 737.1895968553848 492.575681184254Q719.3011368095883 507.4388869575996 693.7311615676558 507.4388869575996L693.7311615676558 507.4388869575996L662.4789696052937 507.4388869575996L662.4789696052937 376.93204829995824L689.7588711751334 376.93204829995824ZM693.7311615676558 391.321736013268L680.4726558866537 391.321736013268L680.4726558866537 493.23334515652596L695.0464895121997 493.23334515652596Q713.2506282646866 493.23334515652596 724.6150617055455 482.0530576279032Q735.9794951464045 470.8727700992804 735.9794951464045 441.51465037706157L735.9794951464045 441.51465037706157Q735.9794951464045 420.8903082066139 730.086825954848 409.78894035466374Q724.2204633221825 398.7138790616045 715.1447005048299 395.0309608168817Q706.0426311285863 391.321736013268 693.7311615676558 391.321736013268L693.7311615676558 391.321736013268ZM850.7550115873014 484.13127578028246Q850.7550115873014 490.2080908840751 852.8332297396807 493.12811892096244Q854.9114478920599 496.0744535167407 859.0941907557094 497.6002339324116L859.0941907557094 497.6002339324116L855.0955938042962 509.70125102221505Q847.3351589314873 508.7542149021434 842.5999783311295 505.36066880522026Q837.8647977307717 501.94081614940626 835.6024336661562 494.7591255721968L835.6024336661562 494.7591255721968Q825.553328169841 509.70125102221505 805.8497155605742 509.70125102221505L805.8497155605742 509.70125102221505Q791.091736022792 509.70125102221505 782.5684109421479 501.3883784126979Q774.0450858615036 493.0491992442898 774.0450858615036 479.6065476510516L774.0450858615036 479.6065476510516Q774.0450858615036 463.69107952207094 785.4884389790352 455.1677544414267Q796.9580986554577 446.64442936078257 817.9770392092685 446.64442936078257L817.9770392092685 446.64442936078257L833.3137630426497 446.64442936078257L833.3137630426497 439.25228631244613Q833.3137630426497 428.6507430794226 828.2102906178197 424.0997083913009Q823.1068181929895 419.54867370317913 812.4789684010752 419.54867370317913L812.4789684010752 419.54867370317913Q801.5091333435794 419.54867370317913 785.5936652145988 424.86259859913633L785.5936652145988 424.86259859913633L781.2267764387132 412.1565306548427Q799.7992070156724 405.3431319021055 815.714675144653 405.3431319021055L815.714675144653 405.3431319021055Q833.3137630426497 405.3431319021055 842.047540594421 413.9716832183132Q850.7550115873014 422.57392797563 850.7550115873014 438.4893961046107L850.7550115873014 438.4893961046107L850.7550115873014 484.13127578028246ZM809.8483125119874 496.65319781233995Q824.7904379620056 496.65319781233995 833.3137630426497 481.1060215078316L833.3137630426497 481.1060215078316L833.3137630426497 458.19300871387765L820.2657098327747 458.19300871387765Q792.591209879572 458.19300871387765 792.591209879572 478.65951153098L792.591209879572 478.65951153098Q792.591209879572 487.5511284360965 796.9580986554577 492.10216312421824Q801.3249874313433 496.65319781233995 809.8483125119874 496.65319781233995L809.8483125119874 496.65319781233995ZM933.5154458580007 405.3431319021055Q947.1685499223661 405.3431319021055 954.8237585596112 413.4981651582774Q962.5052737557473 421.6268918555584 962.5052737557473 435.8324336566321L962.5052737557473 435.8324336566321L962.5052737557473 507.4388869575996L945.0640252110959 507.4388869575996L945.0640252110959 438.3052501923745Q945.0640252110959 427.70370695935105 941.0917348185733 423.3368181834654Q937.1194444260509 418.99623596647075 929.3590095532422 418.99623596647075L929.3590095532422 418.99623596647075Q921.3881222093064 418.99623596647075 915.3376136644047 423.5209640957016Q909.2871051195029 428.07199878382335 903.9731802235458 436.5953238644675L903.9731802235458 436.5953238644675L903.9731802235458 507.4388869575996L886.5582382377852 507.4388869575996L886.5582382377852 407.6318025256118L901.5003636878032 407.6318025256118L903.026144103474 422.3897820633939Q908.3400689994314 414.445201278349 916.1794235489128 409.89416659022726Q924.0450846572849 405.3431319021055 933.5154458580007 405.3431319021055L933.5154458580007 405.3431319021055ZM997.5456101983957 407.6318025256118L1014.9605521841563 407.6318025256118L1014.9605521841563 507.4388869575996L997.5456101983957 507.4388869575996L997.5456101983957 407.6318025256118ZM1006.0689352790398 359.7012522264337Q1011.5670060872333 359.7012522264337 1014.9605521841563 363.1211048822478Q1018.3804048399704 366.5146509791709 1018.3804048399704 371.64442996289193L1018.3804048399704 371.64442996289193Q1018.3804048399704 376.7479023877221 1014.9605521841563 380.0625288079726Q1011.5670060872333 383.37715522822316 1006.0689352790398 383.37715522822316L1006.0689352790398 383.37715522822316Q1000.7550103830827 383.37715522822316 997.3614642861594 380.0625288079726Q993.9416116303455 376.7479023877221 993.9416116303455 371.64442996289193L993.9416116303455 371.64442996289193Q993.9416116303455 366.5146509791709 997.3614642861594 363.1211048822478Q1000.7550103830827 359.7012522264337 1006.0689352790398 359.7012522264337L1006.0689352790398 359.7012522264337ZM1070.8356832683794 509.70125102221505Q1061.1811761554275 509.70125102221505 1055.6041856705615 503.9401146251129Q1050.0008886268047 498.15267166911997 1050.0008886268047 487.7352743483326L1050.0008886268047 487.7352743483326L1050.0008886268047 367.46168709924245L1067.4421371714561 365.38346894686316L1067.4421371714561 487.3669825238603Q1067.4421371714561 491.5234188286189 1068.8626913515636 493.41749106876205Q1070.283245531671 495.31156330890525 1073.676791628594 495.31156330890525L1073.676791628594 495.31156330890525Q1077.2807901966441 495.31156330890525 1080.121898556859 494.18038127659753L1080.121898556859 494.18038127659753L1084.6729332449806 506.3077049252919Q1078.411972228952 509.70125102221505 1070.8356832683794 509.70125102221505L1070.8356832683794 509.70125102221505ZM1143.9416104261268 405.3431319021055Q1164.9868575388284 405.3431319021055 1176.6143565685961 419.36452779094304Q1188.2681621572547 433.3859236797805 1188.2681621572547 457.43011850604216L1188.2681621572547 457.43011850604216Q1188.2681621572547 472.9772948105506 1182.9805438201884 484.81524631144526Q1177.6666189242312 496.65319781233995 1167.6175134279163 503.1772244172775Q1157.594714490492 509.70125102221505 1143.7574645138907 509.70125102221505L1143.7574645138907 509.70125102221505Q1122.7385239600799 509.70125102221505 1111.0057986947486 495.7061616922684Q1099.2467668705265 481.6847658034309 1099.2467668705265 457.61426441827837L1099.2467668705265 457.61426441827837Q1099.2467668705265 442.09339467266085 1104.5606917664838 430.25544317176616Q1109.84831010355 418.4174916708714 1119.897415599865 411.8934650659339Q1129.9465210961803 405.3431319021055 1143.9416104261268 405.3431319021055L1143.9416104261268 405.3431319021055ZM1143.9416104261268 419.36452779094304Q1118.003343359722 419.36452779094304 1118.003343359722 457.61426441827837L1118.003343359722 457.61426441827837Q1118.003343359722 495.7061616922684 1143.7574645138907 495.7061616922684L1143.7574645138907 495.7061616922684Q1169.5115856680593 495.7061616922684 1169.5115856680593 457.43011850604216L1169.5115856680593 457.43011850604216Q1169.5115856680593 419.36452779094304 1143.9416104261268 419.36452779094304L1143.9416104261268 419.36452779094304ZM1334.2958705605135 376.93204829995824L1350.7900829850935 376.93204829995824L1324.2730716230894 507.4388869575996L1301.1496063580084 507.4388869575996L1277.1054115317468 398.16144132489603L1252.850764234358 507.4388869575996L1230.3323498237673 507.4388869575996L1203.815338461763 376.93204829995824L1221.4144263597598 376.93204829995824L1242.4333669135706 491.70756474085505L1267.635050331031 376.93204829995824L1286.7599186446987 376.93204829995824L1312.5140397988673 491.70756474085505L1334.2958705605135 376.93204829995824ZM1440.7585143918934 484.13127578028246Q1440.7585143918934 490.2080908840751 1442.8367325442725 493.12811892096244Q1444.9149506966519 496.0744535167407 1449.0976935603014 497.6002339324116L1449.0976935603014 497.6002339324116L1445.099096608888 509.70125102221505Q1437.338661736079 508.7542149021434 1432.6034811357213 505.36066880522026Q1427.8683005353635 501.94081614940626 1425.6059364707482 494.7591255721968L1425.6059364707482 494.7591255721968Q1415.556830974433 509.70125102221505 1395.8532183651662 509.70125102221505L1395.8532183651662 509.70125102221505Q1381.0952388273838 509.70125102221505 1372.5719137467397 501.3883784126979Q1364.0485886660956 493.0491992442898 1364.0485886660956 479.6065476510516L1364.0485886660956 479.6065476510516Q1364.0485886660956 463.69107952207094 1375.4919417836272 455.1677544414267Q1386.9616014600497 446.64442936078257 1407.9805420138603 446.64442936078257L1407.9805420138603 446.64442936078257L1423.317265847242 446.64442936078257L1423.317265847242 439.25228631244613Q1423.317265847242 428.6507430794226 1418.2137934224118 424.0997083913009Q1413.1103209975815 419.54867370317913 1402.4824712056673 419.54867370317913L1402.4824712056673 419.54867370317913Q1391.5126361481714 419.54867370317913 1375.5971680191906 424.86259859913633L1375.5971680191906 424.86259859913633L1371.230279243305 412.1565306548427Q1389.8027098202645 405.3431319021055 1405.718177949245 405.3431319021055L1405.718177949245 405.3431319021055Q1423.317265847242 405.3431319021055 1432.0510433990132 413.9716832183132Q1440.7585143918934 422.57392797563 1440.7585143918934 438.4893961046107L1440.7585143918934 438.4893961046107L1440.7585143918934 484.13127578028246ZM1399.8518153165794 496.65319781233995Q1414.7939407665976 496.65319781233995 1423.317265847242 481.1060215078316L1423.317265847242 481.1060215078316L1423.317265847242 458.19300871387765L1410.2692126373668 458.19300871387765Q1382.594712684164 458.19300871387765 1382.594712684164 478.65951153098L1382.594712684164 478.65951153098Q1382.594712684164 487.5511284360965 1386.9616014600497 492.10216312421824Q1391.3284902359353 496.65319781233995 1399.8518153165794 496.65319781233995L1399.8518153165794 496.65319781233995ZM1510.444588893827 379.40486483570066Q1502.5000081087817 379.40486483570066 1499.080155452968 382.9036371681873Q1495.6866093560448 386.402409500674 1495.6866093560448 393.79455254901046L1495.6866093560448 393.79455254901046L1495.6866093560448 407.6318025256118L1519.9149500945425 407.6318025256118L1518.0208778543995 421.07445411885004L1495.6866093560448 421.07445411885004L1495.6866093560448 507.4388869575996L1478.245360811393 507.4388869575996L1478.245360811393 421.07445411885004L1460.4621270011603 421.07445411885004L1460.4621270011603 407.6318025256118L1478.245360811393 407.6318025256118L1478.245360811393 393.9786984612466Q1478.245360811393 381.11479116360766 1486.5056203031286 373.24913005523547Q1494.739573235973 365.38346894686316 1509.4975527737554 365.38346894686316L1509.4975527737554 365.38346894686316Q1516.3372580853832 365.38346894686316 1521.7301026580128 366.6198772147344Q1527.122947230643 367.8562854826056 1533.3839082466716 370.4869413716933L1533.3839082466716 370.4869413716933L1527.8858374384783 383.19300931598696Q1519.3625123578342 379.40486483570066 1510.444588893827 379.40486483570066L1510.444588893827 379.40486483570066ZM1573.8960089386223 379.40486483570066Q1565.9514281535774 379.40486483570066 1562.5315754977635 382.9036371681873Q1559.1380294008404 386.402409500674 1559.1380294008404 393.79455254901046L1559.1380294008404 393.79455254901046L1559.1380294008404 407.6318025256118L1583.3663701393382 407.6318025256118L1581.472297899195 421.07445411885004L1559.1380294008404 421.07445411885004L1559.1380294008404 507.4388869575996L1541.6967808561888 507.4388869575996L1541.6967808561888 421.07445411885004L1523.9135470459557 421.07445411885004L1523.9135470459557 407.6318025256118L1541.6967808561888 407.6318025256118L1541.6967808561888 393.9786984612466Q1541.6967808561888 381.11479116360766 1549.9570403479242 373.24913005523547Q1558.1909932807687 365.38346894686316 1572.9489728185506 365.38346894686316L1572.9489728185506 365.38346894686316Q1579.7886781301788 365.38346894686316 1585.1815227028085 366.6198772147344Q1590.5743672754386 367.8562854826056 1596.8353282914672 370.4869413716933L1596.8353282914672 370.4869413716933L1591.337257483274 383.19300931598696Q1582.81393240263 379.40486483570066 1573.8960089386223 379.40486483570066L1573.8960089386223 379.40486483570066ZM1603.464581131968 407.6318025256118L1620.879523117729 407.6318025256118L1620.879523117729 507.4388869575996L1603.464581131968 507.4388869575996L1603.464581131968 407.6318025256118ZM1611.9879062126124 359.7012522264337Q1617.459670461915 359.7012522264337 1620.879523117729 363.1211048822478Q1624.2993757735428 366.5146509791709 1624.2993757735428 371.64442996289193L1624.2993757735428 371.64442996289193Q1624.2993757735428 376.7479023877221 1620.879523117729 380.0625288079726Q1617.459670461915 383.37715522822316 1611.9879062126124 383.37715522822316L1611.9879062126124 383.37715522822316Q1606.6739813166553 383.37715522822316 1603.2541286608412 380.0625288079726Q1599.8605825639181 376.7479023877221 1599.8605825639181 371.64442996289193L1599.8605825639181 371.64442996289193Q1599.8605825639181 366.5146509791709 1603.2541286608412 363.1211048822478Q1606.6739813166553 359.7012522264337 1611.9879062126124 359.7012522264337L1611.9879062126124 359.7012522264337ZM1683.9626513380524 405.3431319021055Q1694.1695961877124 405.3431319021055 1702.3246294438843 408.18424026232026Q1710.4796627000562 411.025348622535 1717.845499189502 416.7075653429644L1717.845499189502 416.7075653429644L1710.4796627000562 427.70370695935105Q1703.6399573884285 423.3368181834654 1697.484222607963 421.2586000310862Q1691.3284878274978 419.1803818787069 1684.5150890747607 419.1803818787069L1684.5150890747607 419.1803818787069Q1675.9917639941166 419.1803818787069 1671.0724374815225 422.6791542111935Q1666.1531109689283 426.1779265436802 1666.1531109689283 432.25474164747277L1666.1531109689283 432.25474164747277Q1666.1531109689283 438.3052501923745 1670.7830653337228 441.72510284818856Q1675.439326257408 445.1186489451117 1687.5403433472113 448.35435568868957L1687.5403433472113 448.35435568868957Q1704.2187016840278 452.5107919934482 1712.452654616872 459.7187891295485Q1720.6866075497167 466.90047970675795 1720.6866075497167 479.3960951799246L1720.6866075497167 479.3960951799246Q1720.6866075497167 494.18038127659753 1709.2432544321853 501.94081614940626Q1697.7735947557628 509.70125102221505 1681.3056888900735 509.70125102221505L1681.3056888900735 509.70125102221505Q1658.5768220083557 509.70125102221505 1643.6083899994467 496.65319781233995L1643.6083899994467 496.65319781233995L1652.8946052879262 486.0253480204256Q1665.574366673329 495.7061616922684 1680.9110905067103 495.7061616922684L1680.9110905067103 495.7061616922684Q1690.776050090789 495.7061616922684 1696.5371864878914 491.6286450641825Q1702.3246294438843 487.5511284360965 1702.3246294438843 480.55358377112316L1702.3246294438843 480.55358377112316Q1702.3246294438843 475.4238047874021 1700.2464112915052 472.2933242793878Q1698.168193139126 469.1891503302643 1693.0384141554048 466.8215600300853Q1687.9349417305746 464.45396972990636 1678.0699821464957 461.7970072819278L1678.0699821464957 461.7970072819278Q1662.1808205764062 457.61426441827837 1655.0780496758691 450.616719753305Q1647.9752787753323 443.6191750883317 1647.9752787753323 432.8071793841812L1647.9752787753323 432.8071793841812Q1647.9752787753323 425.0467445113725 1652.6052331401268 418.7068638186711Q1657.235187504921 412.3669831259697 1665.4954469966565 408.84190423459216Q1673.729399929501 405.3431319021055 1683.9626513380524 405.3431319021055L1683.9626513380524 405.3431319021055Z " fill="#fce77e" transform="matrix(0.5085179545561785,0,0,0.5085179545561784,0,78.94660292376899)"/></g></svg>